<svg id="icons8-twitter-circled" xmlns="http://www.w3.org/2000/svg" xmlns:xlink="http://www.w3.org/1999/xlink" width="59.509" height="59.509" viewBox="0 0 59.509 59.509">
  <defs>
    <linearGradient id="linear-gradient" x1="0.5" y1="-0.106" x2="0.5" y2="1.127" gradientUnits="objectBoundingBox">
      <stop offset="0" stop-color="#6dc7ff"/>
      <stop offset="1" stop-color="#e6abff"/>
    </linearGradient>
    <linearGradient id="linear-gradient-2" x1="0.5" y1="-0.014" x2="0.5" y2="1.027" gradientUnits="objectBoundingBox">
      <stop offset="0" stop-color="#1a6dff"/>
      <stop offset="1" stop-color="#c822ff"/>
    </linearGradient>
  </defs>
  <path id="Path_5" data-name="Path 5" d="M24.277,35.367c9.931,0,15.362-6.3,15.362-11.758q0-.268-.016-.534a9.982,9.982,0,0,0,2.693-2.14,13.429,13.429,0,0,1-3.1.651A4.565,4.565,0,0,0,41.59,19.3a13,13,0,0,1-3.429,1A6.267,6.267,0,0,0,34.221,19c-2.982,0-5.4,1.851-5.4,4.132a3.227,3.227,0,0,0,.14.942,17.266,17.266,0,0,1-11.129-4.317,3.416,3.416,0,0,0-.731,2.077,3.992,3.992,0,0,0,2.4,3.44,6.66,6.66,0,0,1-2.446-.517c0,.017,0,.035,0,.053,0,2,1.861,3.672,4.332,4.051a7.011,7.011,0,0,1-2.438.071,5.429,5.429,0,0,0,5.044,2.87,13.083,13.083,0,0,1-6.706,1.769q-.654,0-1.288-.057a18.851,18.851,0,0,0,8.276,1.855" transform="translate(0.596 2.573)" fill="url(#linear-gradient)"/>
  <path id="Path_6" data-name="Path 6" d="M35.754,65.509A29.754,29.754,0,1,1,65.509,35.754,29.787,29.787,0,0,1,35.754,65.509Zm0-57.22A27.466,27.466,0,1,0,63.22,35.754,27.5,27.5,0,0,0,35.754,8.289Z" transform="translate(-6 -6)" fill="url(#linear-gradient-2)"/>
</svg>
